<svg width="36" height="41" viewBox="0 0 36 41" fill="none" xmlns="http://www.w3.org/2000/svg">
<path d="M32.5393 0.00305719H2.59323C1.17792 -0.015577 0.0172731 1.3071 0 2.95832V38.0411C0.0166817 39.6931 1.17723 41.0171 2.59323 40.9998H32.5393C33.9581 41.0203 35.1232 39.6964 35.1429 38.0411V2.95578C35.1226 1.3013 33.9574 -0.0212947 32.5393 0.000259754" fill="#0A66C2"/>
<path d="M24.7363 34.9346H29.9434L29.9455 24.202C29.9455 18.9332 28.9725 14.8831 23.6949 14.8831C21.6773 14.7958 19.7821 16.0101 18.7628 18.0434H18.6928V15.3698H13.694V34.934H18.9011V25.2556C18.9011 22.7035 19.316 20.2317 22.0281 20.2317C24.7016 20.2317 24.7363 23.1522 24.7363 25.4208V34.9346Z" fill="white"/>
<path d="M4.79645 9.17068C4.79675 11.1177 6.14986 12.6958 7.81872 12.6955C8.62013 12.6953 9.38866 12.3237 9.95525 11.6625C10.5218 11.0012 10.84 10.1044 10.8399 9.16942C10.8396 7.22238 9.48649 5.64427 7.81763 5.64462C6.14878 5.64497 4.79615 7.22364 4.79645 9.17068Z" fill="white"/>
<path d="M5.20976 34.9346H10.4223V15.3698H5.20976V34.9346Z" fill="white"/>
</svg>
