<svg width="41" height="41" viewBox="0 0 41 41" fill="none" xmlns="http://www.w3.org/2000/svg">
<path d="M36.8026 11.949C36.8275 12.3196 36.8275 12.6903 36.8275 13.0644C36.8275 24.4633 28.366 37.6096 12.8938 37.6096V37.6028C8.32326 37.6096 3.84765 36.267 0 33.7354C0.664595 33.8174 1.33252 33.8584 2.00211 33.8601C5.7898 33.8635 9.46923 32.5602 12.4491 30.1601C8.8496 30.0901 5.6932 27.6832 4.59053 24.1695C5.85143 24.4189 7.15064 24.3676 8.38822 24.0208C4.46395 23.2077 1.64067 19.6718 1.64067 15.5652C1.64067 15.5276 1.64067 15.4918 1.64067 15.4559C2.80995 16.1238 4.11916 16.4945 5.45834 16.5355C1.76226 14.0022 0.622953 8.9596 2.85493 5.01706C7.12566 10.4064 13.4268 13.6828 20.191 14.0296C19.5131 11.0334 20.4392 7.89368 22.6245 5.78746C26.0125 2.52138 31.3409 2.68878 34.5256 6.16156C36.4095 5.78063 38.215 5.07173 39.8674 4.0673C39.2394 6.06419 37.9252 7.76044 36.1696 8.83832C37.8369 8.63675 39.4659 8.17895 41 7.4803C39.8707 9.21583 38.4482 10.7276 36.8026 11.949Z" fill="#1D9BF0"/>
</svg>
